<svg xmlns="http://www.w3.org/2000/svg" viewBox="0 0 32 22.53"><defs><style>.cls-1{fill:#fff;}</style></defs><title>Asset 2</title><g id="Layer_2" data-name="Layer 2"><g id="Layer_1-2" data-name="Layer 1"><path id="패스_18644" data-name="패스 18644" class="cls-1" d="M31.33,3.52A4,4,0,0,0,28.5.67C26,0,16,0,16,0S6,0,3.5.67A4,4,0,0,0,.67,3.52,45.32,45.32,0,0,0,.67,19,4,4,0,0,0,3.5,21.86c2.49.67,12.5.67,12.5.67s10,0,12.5-.67A4,4,0,0,0,31.33,19,45.32,45.32,0,0,0,31.33,3.52ZM12.73,16V6.51l8.36,4.76Z"/></g></g></svg>